<svg width="800" height="800" viewBox="0 0 32 32" xmlns="http://www.w3.org/2000/svg">
  <path d="M0 9.875v12.219C0 23.219.469 24.219 1.219 25c.75.75 1.719 1.156 2.844 1.156h6.125v-2.531H4.063c-.844 0-1.5-.688-1.5-1.531V9.875c0-.844.656-1.5 1.5-1.5h6.125V5.812H4.063A3.941 3.941 0 0 0 1.219 7C.469 7.781 0 8.75 0 9.875zm6.719 3.688v4.875c0 .563.5 1.031 1.063 1.031h5.656v3.844c0 .344.188.625.5.781.125.031.25.031.313.031a.756.756 0 0 0 .563-.219l7.344-7.344c.344-.281.313-.844 0-1.156l-7.344-7.313c-.438-.469-1.375-.188-1.375.563v3.875H7.783c-.563 0-1.063.469-1.063 1.031z"/>
</svg>
