<svg aria-hidden="true" style="position: absolute; width: 0; height: 0; overflow: hidden;" version="1.1" xmlns="http://www.w3.org/2000/svg" xmlns:xlink="http://www.w3.org/1999/xlink">
<defs>
<symbol id="icon-cat-foot" viewBox="0 0 32 32">
<path d="M11.537 0.81c-0.418 0.098-0.732 0.28-1.090 0.637-0.29 0.287-0.498 0.58-0.697 0.977-1.192 2.385-0.79 6.32 0.883 8.575 0.227 0.307 0.623 0.713 0.893 0.915 0.885 0.668 1.88 0.703 2.678 0.095 0.818-0.625 1.377-1.83 1.59-3.422 0.053-0.41 0.063-1.68 0.012-2.1-0.205-1.755-0.727-3.208-1.545-4.305-0.205-0.272-0.607-0.683-0.86-0.875-0.235-0.177-0.68-0.407-0.912-0.47-0.207-0.057-0.755-0.073-0.95-0.027zM21.365 1.315c-0.777 0.153-1.59 0.748-2.262 1.653-0.865 1.163-1.45 2.7-1.67 4.395-0.070 0.54-0.063 1.745 0.012 2.235 0.175 1.117 0.547 1.973 1.105 2.527 0.477 0.48 1.078 0.703 1.688 0.63 1.453-0.18 2.885-1.765 3.65-4.040 0.635-1.888 0.703-3.875 0.183-5.39-0.508-1.478-1.538-2.243-2.705-2.010zM5.237 9.475c-1.022 0.162-1.792 0.988-2.14 2.297-0.198 0.752-0.225 1.79-0.070 2.703 0.357 2.125 1.588 4.077 3.043 4.832 0.745 0.385 1.487 0.453 2.125 0.188 0.94-0.39 1.558-1.4 1.76-2.883 0.040-0.297 0.040-1.18-0.002-1.525-0.325-2.755-2.022-5.173-3.91-5.575-0.223-0.047-0.617-0.065-0.805-0.037zM26.425 11.5c-0.9 0.193-1.782 0.825-2.515 1.805-0.795 1.065-1.33 2.455-1.485 3.855-0.040 0.365-0.032 1.15 0.012 1.503 0.305 2.37 1.915 3.508 3.738 2.648 0.977-0.462 1.863-1.415 2.495-2.683 1.2-2.4 1.122-5.213-0.183-6.515-0.55-0.55-1.308-0.775-2.063-0.613zM15.563 15.947c-1.655 0.295-3.742 2.033-5.593 4.653-1.447 2.053-2.467 4.262-2.772 6.012-0.072 0.42-0.080 1.17-0.015 1.457 0.103 0.448 0.275 0.742 0.61 1.055 0.56 0.517 1.232 0.823 2.075 0.94 0.438 0.060 1.322 0.038 1.885-0.047 0.752-0.117 1.387-0.27 2.81-0.68 1.375-0.395 1.76-0.477 2.14-0.453 0.483 0.032 0.845 0.15 1.885 0.608 0.745 0.328 1.16 0.483 1.515 0.57 1.325 0.32 2.44-0.098 3.587-1.343 0.343-0.37 0.448-0.55 0.555-0.942 0.060-0.225 0.065-0.275 0.065-0.802 0-0.477-0.008-0.613-0.058-0.887-0.295-1.668-1.172-3.683-2.44-5.6-1.508-2.28-3.277-3.922-4.755-4.41-0.538-0.178-0.995-0.217-1.495-0.13z"></path>
</symbol>
<symbol id="icon-bell" viewBox="0 0 32 32">
<path d="M12.094 28.706c0.327 1.881 1.948 3.294 3.898 3.294 0.003 0 0.005 0 0.008 0h-0c0.002 0 0.005 0 0.008 0 1.951 0 3.571-1.412 3.896-3.27l0.003-0.024 0.020-0.116h-7.852l0.020 0.116zM29.361 23.249c-0.32-0.32-0.647-0.591-0.963-0.854-1.328-1.103-2.476-2.055-2.476-6.011v-3.137c0-4.613-3.241-8.661-7.726-9.676 0.18-0.353 0.271-0.723 0.271-1.103 0-1.361-1.107-2.468-2.469-2.468s-2.468 1.107-2.468 2.468c0 0.381 0.091 0.751 0.271 1.103-4.485 1.015-7.726 5.063-7.726 9.676v3.137c0 3.955-1.147 4.908-2.475 6.011-0.316 0.262-0.642 0.533-0.963 0.854l-0.029 0.029v3.112h26.781v-3.112l-0.029-0.029z"></path>
</symbol>
<symbol id="icon-glass" viewBox="0 0 32 32">
<path d="M31.121 26.878l-5.332-5.332c1.386-2.128 2.211-4.733 2.211-7.53 0-0.006 0-0.012 0-0.018v0.001c0-7.732-6.268-14-14-14s-14 6.268-14 14 6.268 14 14 14c2.78 0 5.368-0.814 7.546-2.211l5.332 5.332c1.172 1.172 3.071 1.172 4.242 0s1.172-3.070 0-4.242zM14 27c-7.179 0-13-5.82-13-13s5.821-13 13-13 13 5.821 13 13-5.82 13-13 13zM30.414 30.414c-0.362 0.362-0.862 0.586-1.414 0.586s-1.052-0.224-1.414-0.586l-5.201-5.201c1.081-0.815 2.013-1.747 2.803-2.792l0.026-0.036 5.201 5.201c0.362 0.362 0.586 0.862 0.586 1.414s-0.224 1.052-0.586 1.414v0z"></path>
<path d="M14 2c-6.628 0-12 5.372-12 12s5.372 12 12 12 12-5.372 12-12-5.372-12-12-12zM14 25c-6.075 0-11-4.925-11-11s4.925-11 11-11 11 4.925 11 11-4.925 11-11 11z"></path>
<path d="M14 5.5c-0.276 0-0.5 0.224-0.5 0.5s0.224 0.5 0.5 0.5v0c4.142 0 7.5 3.358 7.5 7.5 0 0.276 0.224 0.5 0.5 0.5s0.5-0.224 0.5-0.5v0c0-4.694-3.805-8.5-8.5-8.5z"></path>
</symbol>
<symbol id="icon-microphone" viewBox="0 0 32 32">
<path d="M24.276 15.448c-0.305 0-0.552 0.247-0.552 0.552v0 3.31c0 4.259-3.465 7.724-7.724 7.724s-7.724-3.465-7.724-7.724v-3.31c0-0.305-0.247-0.552-0.552-0.552s-0.552 0.247-0.552 0.552v0 3.31c0 4.681 3.666 8.513 8.276 8.799v2.787h-2.759c-0.305 0-0.552 0.247-0.552 0.552s0.247 0.552 0.552 0.552v0h6.621c0.305 0 0.552-0.247 0.552-0.552s-0.247-0.552-0.552-0.552v0h-2.759v-2.787c4.61-0.287 8.276-4.119 8.276-8.799v-3.31c0-0.305-0.247-0.552-0.552-0.552v0z"></path>
<path d="M16 25.379c3.346 0 6.069-2.723 6.069-6.069v-13.241c0-3.346-2.723-6.069-6.069-6.069s-6.069 2.723-6.069 6.069v13.241c0 3.346 2.723 6.069 6.069 6.069z"></path>
</symbol>
<symbol id="icon-youtube" viewBox="0 -3 20 20">
  <path d="M7.988 9.586V3.974c1.993.938 3.536 1.843 5.36 2.82-1.505.834-3.367 1.77-5.36 2.792m11.103-8.403c-.344-.453-.93-.805-1.553-.922-1.833-.348-13.267-.349-15.099 0-.5.094-.945.32-1.328.673C-.5 2.429.005 10.452.393 11.75c.164.562.375.968.64 1.235.343.352.812.594 1.351.703 1.51.312 9.284.486 15.122.047a2.62 2.62 0 0 0 1.39-.712c1.49-1.49 1.388-9.962.195-11.841" fill="#000" fill-rule="evenodd"/>
</symbol>
<symbol id="icon-facebook" viewBox="0 0 24 24">
  <path d="M12 2.04c-5.5 0-10 4.49-10 10.02 0 5 3.66 9.15 8.44 9.9v-7H7.9v-2.9h2.54V9.85c0-2.51 1.49-3.89 3.78-3.89 1.09 0 2.23.19 2.23.19v2.47h-1.26c-1.24 0-1.63.77-1.63 1.56v1.88h2.78l-.45 2.9h-2.33v7a10 10 0 0 0 8.44-9.9c0-5.53-4.5-10.02-10-10.02Z"/>
</symbol>
<symbol id="icon-telegram" viewBox="0 0 32 32">
  <path d="M22.122 10.04h.022c.209 0 .403.065.562.177l-.003-.002a.632.632 0 0 1 .213.403v.003a2.553 2.553 0 0 1 .024.598v-.009c-.225 2.369-1.201 8.114-1.697 10.766-.21 1.123-.623 1.499-1.023 1.535-.869.081-1.529-.574-2.371-1.126-1.318-.865-2.063-1.403-3.342-2.246-1.479-.973-.52-1.51.322-2.384.221-.23 4.052-3.715 4.127-4.031a.308.308 0 0 0-.07-.265.34.34 0 0 0-.185-.053.364.364 0 0 0-.128.024l.002-.001q-.198.045-6.316 4.174a2.805 2.805 0 0 1-1.619.599h-.006a10.542 10.542 0 0 1-2.401-.573l.074.024c-.938-.306-1.683-.467-1.619-.985q.051-.404 1.114-.827 6.548-2.853 8.733-3.761a22.627 22.627 0 0 1 5.429-2.01l.157-.031zM15.93 1.025C7.628 1.045.905 7.78.905 16.085c0 8.317 6.742 15.06 15.06 15.06s15.06-6.742 15.06-15.06c0-8.305-6.723-15.04-15.023-15.06H15.93z"/>
</symbol>
<symbol id="icon-instagram" viewBox="0 0 20 20">
  <path d="M5.87.123C4.242.196 2.83.594 1.69 1.729.548 2.869.155 4.286.081 5.897.037 6.902-.231 14.498.545 16.49a5.04 5.04 0 0 0 2.91 2.903c.634.246 1.356.412 2.416.461 8.86.401 12.145.183 13.53-3.364.246-.631.415-1.353.462-2.41.405-8.883-.066-10.809-1.61-12.351C17.027.507 15.586-.325 5.87.123m.081 17.944c-.97-.043-1.496-.205-1.848-.341a3.255 3.255 0 0 1-1.888-1.883c-.591-1.514-.395-8.703-.342-9.866.051-1.14.282-2.18 1.086-2.985C3.954 2 5.24 1.513 13.993 1.908c1.142.052 2.186.282 2.992 1.084.995.993 1.489 2.288 1.087 11.008-.044.968-.206 1.493-.342 1.843-.901 2.308-2.973 2.628-11.779 2.224M14.09 4.69c0 .657.534 1.19 1.194 1.19.66 0 1.195-.533 1.195-1.19a1.194 1.194 0 0 0-2.39 0M4.864 9.988a5.103 5.103 0 0 0 5.11 5.097 5.103 5.103 0 0 0 5.109-5.097 5.102 5.102 0 0 0-5.11-5.096 5.102 5.102 0 0 0-5.11 5.096m1.794 0A3.313 3.313 0 0 1 9.972 6.68a3.313 3.313 0 0 1 3.317 3.308 3.313 3.313 0 0 1-3.317 3.31 3.313 3.313 0 0 1-3.316-3.31" fill-rule="evenodd"/>
</symbol>
<symbol id="icon-setting" viewBox="0 0 24 24">
  <path d="M20.1 9.221c-1.81 0-2.55-1.28-1.65-2.85.52-.91.21-2.07-.7-2.59l-1.73-.99c-.79-.47-1.81-.19-2.28.6l-.11.19c-.9 1.57-2.38 1.57-3.29 0l-.11-.19a1.641 1.641 0 0 0-2.26-.6l-1.73.99c-.91.52-1.22 1.69-.7 2.6.91 1.56.17 2.84-1.64 2.84-1.04 0-1.9.85-1.9 1.9v1.76c0 1.04.85 1.9 1.9 1.9 1.81 0 2.55 1.28 1.64 2.85-.52.91-.21 2.07.7 2.59l1.73.99c.79.47 1.81.19 2.28-.6l.11-.19c.9-1.57 2.38-1.57 3.29 0l.11.19c.47.79 1.49 1.07 2.28.6l1.73-.99c.91-.52 1.22-1.69.7-2.59-.91-1.57-.17-2.85 1.64-2.85 1.04 0 1.9-.85 1.9-1.9v-1.76a1.92 1.92 0 0 0-1.91-1.9Zm-8.1 6.03c-1.79 0-3.25-1.46-3.25-3.25s1.46-3.25 3.25-3.25 3.25 1.46 3.25 3.25-1.46 3.25-3.25 3.25Z" fill="#292D32"/>
</symbol>
<symbol id="icon-logout" viewBox="0 0 32 32">
  <path d="M0 9.875v12.219C0 23.219.469 24.219 1.219 25c.75.75 1.719 1.156 2.844 1.156h6.125v-2.531H4.063c-.844 0-1.5-.688-1.5-1.531V9.875c0-.844.656-1.5 1.5-1.5h6.125V5.812H4.063A3.941 3.941 0 0 0 1.219 7C.469 7.781 0 8.75 0 9.875zm6.719 3.688v4.875c0 .563.5 1.031 1.063 1.031h5.656v3.844c0 .344.188.625.5.781.125.031.25.031.313.031a.756.756 0 0 0 .563-.219l7.344-7.344c.344-.281.313-.844 0-1.156l-7.344-7.313c-.438-.469-1.375-.188-1.375.563v3.875H7.783c-.563 0-1.063.469-1.063 1.031z"/>
</symbol>

</defs>
</svg>
